<svg xmlns="http://www.w3.org/2000/svg" width="800" height="600" viewBox="0 0 800 600" role="img" aria-label="Imagen de casa de ejemplo">
  <defs>
    <linearGradient id="g1" x1="0" x2="0" y1="0" y2="1">
      <stop offset="0%" stop-color="#2a2f3a"/>
      <stop offset="100%" stop-color="#1f232b"/>
    </linearGradient>
    <linearGradient id="g2" x1="0" x2="1" y1="0" y2="1">
      <stop offset="0%" stop-color="#3b82f6" stop-opacity="0.15"/>
      <stop offset="100%" stop-color="#22d3ee" stop-opacity="0.25"/>
    </linearGradient>
    <filter id="shadow" x="-20%" y="-20%" width="140%" height="140%">
      <feDropShadow dx="0" dy="6" stdDeviation="8" flood-color="#000" flood-opacity="0.35"/>
    </filter>
  </defs>
  <rect width="100%" height="100%" fill="url(#g1)"/>
  <!-- suelo -->
  <ellipse cx="400" cy="470" rx="300" ry="40" fill="#0f1115" opacity="0.7"/>
  <!-- casa -->
  <g filter="url(#shadow)">
    <!-- cuerpo -->
    <rect x="250" y="260" width="300" height="190" rx="8" fill="#2b2f39" stroke="#3b404c" stroke-width="2"/>
    <!-- techo -->
    <polygon points="400,160 210,280 590,280" fill="#3b404c"/>
    <polygon points="400,175 228,280 572,280" fill="url(#g2)"/>
    <!-- puerta -->
    <rect x="370" y="330" width="60" height="120" rx="4" fill="#1f232b" stroke="#3b404c"/>
    <circle cx="415" cy="392" r="4" fill="#a3e635"/>
    <!-- ventana izq -->
    <rect x="285" y="320" width="70" height="60" rx="4" fill="#0b1320" stroke="#2b6cb0"/>
    <g opacity="0.8">
      <rect x="285" y="320" width="70" height="60" fill="url(#g2)" rx="4"/>
      <line x1="320" y1="320" x2="320" y2="380" stroke="#60a5fa" stroke-width="2"/>
      <line x1="285" y1="350" x2="355" y2="350" stroke="#60a5fa" stroke-width="2"/>
    </g>
    <!-- ventana der -->
    <rect x="445" y="320" width="70" height="60" rx="4" fill="#0b1320" stroke="#2b6cb0"/>
    <g opacity="0.8">
      <rect x="445" y="320" width="70" height="60" fill="url(#g2)" rx="4"/>
      <line x1="480" y1="320" x2="480" y2="380" stroke="#60a5fa" stroke-width="2"/>
      <line x1="445" y1="350" x2="515" y2="350" stroke="#60a5fa" stroke-width="2"/>
    </g>
  </g>
  <!-- detalle decorativo -->
  <g opacity="0.4">
    <circle cx="80" cy="90" r="4" fill="#93c5fd"/>
    <circle cx="720" cy="130" r="3" fill="#93c5fd"/>
    <circle cx="680" cy="80" r="2" fill="#93c5fd"/>
    <circle cx="120" cy="140" r="3" fill="#93c5fd"/>
  </g>
</svg>
